<?xml version="1.0" encoding="UTF-8" standalone="no"?>
<svg
   viewBox="0 0 109.5954 109.59732"
   width="109.5954"
   height="109.59732"
   version="1.1"
   id="svg20"
   xmlns="http://www.w3.org/2000/svg"
   xmlns:svg="http://www.w3.org/2000/svg">
  <defs
     id="defs20" />
  <g
     fill="None"
     fill-opacity="0"
     stroke="#d7f615"
     stroke-opacity="1"
     stroke-width="0.3"
     id="g2"
     transform="matrix(0.25782554,0,0,0.25782554,-139.07614,-90.606769)">
    <path
       d="m 648,353 c 35.94,0 71.16,0.75 107,1 -1.03,2.81 -3.89,0.13 -5,2 1.53,2.03 -1.41,5.71 -4,5 0.37,-1.73 4.62,-3.49 2,-5 -2.37,0.9 -2.34,4.33 -5,5 3.25,1.58 1.13,3.83 -2,3 4.35,2.68 -0.72,7.19 -2.9,10.1 -2.19,2.91 -6.23,3.9 -9.1,1.9 -0.53,5.07 -8.51,6.17 -1,7 -2.28,1.1 -3.56,2.66 -6,0 1.99,3.59 -1.28,5.38 -5,6 5.22,-5.6 -0.96,-3.53 -4.23,-0.23 -3.27,3.3 -7.34,5.57 -10.77,8.23 0.96,1.47 4.97,-1.68 6,1 -5.47,-0.61 -10.37,8.44 -14,3 -2.71,3.6 0.71,2.76 2,5 -3.3,-0.79 -5.04,2.83 -8,3 0.28,-2.35 3.11,-3.53 4,-6 -6.9,3.32 -9.55,6.61 -14.96,10.04 -5.42,3.42 -14.97,5.14 -16.04,12.96 4.48,-4.89 9.14,-9.72 16,-11 -14.3,13.35 -29.26,18.13 -44,30 5.47,1.46 6.28,-5.67 12,-6 -2.6,3.03 -8.85,8.31 -11.78,10.56 -2.92,2.26 -6.39,9.89 -9.22,4.44 -2.06,2.62 -3.84,3.6 -1,7 -2.38,-2.55 -3.57,3.55 -6,1 -2.01,6.63 -8.79,16.16 -16,14 1.03,2.42 0.9,4.53 0,7 -3.07,-0.5 -2.58,1.31 -5,-1 -1.44,2.46 -5.36,3.59 -5,7 8.35,-4.71 -3.53,8.2 -2,-1 -0.98,2.65 -3.58,4.11 -2,7 -7.17,-0.85 -10.82,7.4 -17,11 0.92,2.22 5.38,-2.2 5,2 -5.26,1.28 -8.17,3.17 -13,1 -0.2,4.32 -0.17,2.48 3,5 -4.56,1.54 -8.46,3.88 -12,9 -3.34,-1.28 -6.71,1.17 -10,-1 1.9,2.55 1.03,3.36 -1,6 -0.24,-22.68 -1.6,-45.1 -1,-68 -2.96,30.59 -0.29,66.87 -1,98 -0.71,31.13 0.38,69.23 0,99 -0.38,29.77 7.78,52.38 24.75,74.25 16.97,21.88 32.49,31.73 59.03,39.97 26.53,8.24 63.39,3.86 93.22,4.78 29.83,0.92 69.27,-0.89 99,0 29.73,0.89 61.48,0.7 85.77,-13.23 24.29,-13.93 35.49,-25.35 49.31,-49.69 13.82,-24.34 13.77,-56.42 12.92,-86.08 -0.85,-29.66 0.88,-68.21 0,-98 -0.88,-29.79 3.45,-67.43 -5.02,-93.98 C 950.51,408.48 940.7,393.26 918.75,376.25 896.81,359.24 873.7,351.58 844,352 c -29.7,0.42 -68.01,-0.72 -99,0 -30.99,0.72 -66.52,-1.95 -97,1 m 25,107 c 26.7,4.78 38.08,42.26 19.75,61.75 -18.34,19.48 -52.2,16.79 -63.05,-10.44 C 618.85,484.07 642.78,454.58 673,460 m 187,36 c -4.52,4.52 -16.5,1.71 -23.22,3.78 -6.72,2.07 -16.52,1.64 -24,3 -7.48,1.36 -15.98,1.94 -23.85,3.15 -7.88,1.21 -17.69,1.75 -25.93,2.07 -0.78,-10.04 1.05,-18.84 0,-29 -1.05,-10.16 10.73,-9 19.07,-9.93 8.34,-0.92 17.62,-1.58 26,-3 8.39,-1.41 17.45,-1.75 25.93,-3.07 8.49,-1.31 17.63,-1.07 26,-3 1.18,4.47 1.84,12.99 1,18 -0.84,5.01 2.43,14.57 -1,18 m 15,84 c 0.34,3.51 0.42,7.52 0,11 -1.16,57.98 -67.23,89.05 -118.01,92.99 C 706.22,687.94 642.53,654.32 629,601 c 10.05,-1.65 19,-7.11 29,-9 10.85,35.24 46.47,60.51 83,61 4.67,0 9.33,0 14,0 31.77,0 24.25,-41.19 32,-62 7.75,-20.82 12.39,-47.57 39.08,-54.92 C 852.76,528.72 875,553.67 875,580 Z"
       id="path2" />
  </g>
  <g
     fill="None"
     fill-opacity="0"
     stroke="#f4f34b"
     stroke-opacity="1"
     stroke-width="0.3"
     id="g3"
     transform="matrix(0.25782554,0,0,0.25782554,-139.07614,-90.606769)">
    <path
       d="m 541,460 c -0.6,22.9 0.76,45.32 1,68 2.03,-2.64 2.9,-3.45 1,-6 3.29,2.17 6.66,-0.28 10,1 3.54,-5.12 7.44,-7.46 12,-9 -3.17,-2.52 -3.2,-0.68 -3,-5 4.83,2.17 7.74,0.28 13,-1 0.38,-4.2 -4.08,0.22 -5,-2 6.18,-3.6 9.83,-11.85 17,-11 -1.58,-2.89 1.02,-4.35 2,-7 -1.53,9.2 10.35,-3.71 2,1 -0.36,-3.41 3.56,-4.54 5,-7 2.42,2.31 1.93,0.5 5,1 0.9,-2.47 1.03,-4.58 0,-7 7.21,2.16 13.99,-7.37 16,-14 2.43,2.55 3.62,-3.55 6,-1 -2.84,-3.4 -1.06,-4.38 1,-7 2.83,5.45 6.3,-2.18 9.22,-4.44 2.93,-2.25 9.18,-7.53 11.78,-10.56 -5.72,0.33 -6.53,7.46 -12,6 14.74,-11.87 29.7,-16.65 44,-30 -6.86,1.28 -11.52,6.11 -16,11 1.07,-7.82 10.62,-9.54 16.04,-12.96 5.41,-3.43 8.06,-6.72 14.96,-10.04 -0.89,2.47 -3.72,3.65 -4,6 2.96,-0.17 4.7,-3.79 8,-3 -1.29,-2.24 -4.71,-1.4 -2,-5 3.63,5.44 8.53,-3.61 14,-3 -1.03,-2.68 -5.04,0.47 -6,-1 3.43,-2.66 7.5,-4.93 10.77,-8.23 3.27,-3.3 9.45,-5.37 4.23,0.23 3.72,-0.62 6.99,-2.41 5,-6 2.44,2.66 3.72,1.1 6,0 -7.51,-0.83 0.47,-1.93 1,-7 2.87,2 6.91,1.01 9.1,-1.9 2.18,-2.91 7.25,-7.42 2.9,-10.1 3.13,0.83 5.25,-1.42 2,-3 2.66,-0.67 2.63,-4.1 5,-5 2.62,1.51 -1.63,3.27 -2,5 2.59,0.71 5.53,-2.97 4,-5 1.11,-1.87 3.97,0.81 5,-2 -35.84,-0.25 -71.06,-1 -107,-1 -54.61,0 -107,52.41 -107,107 z"
       id="path3" />
  </g>
  <g
     fill="None"
     fill-opacity="0"
     stroke="#000000"
     stroke-opacity="1"
     stroke-width="0.3"
     id="g4"
     transform="matrix(0.25782554,0,0,0.25782554,-139.07614,-90.606769)">
    <path
       d="m 673,460 c -30.22,-5.42 -54.15,24.07 -43.3,51.31 10.85,27.23 44.71,29.92 63.05,10.44 C 711.08,502.26 699.7,464.78 673,460 Z"
       id="path4" />
  </g>
  <g
     fill="None"
     fill-opacity="0"
     stroke="#000000"
     stroke-opacity="1"
     stroke-width="0.3"
     id="g5"
     transform="matrix(0.25782554,0,0,0.25782554,-139.07614,-90.606769)">
    <path
       d="m 860,496 c 2.82,-4.03 -1.47,-13.03 0,-18 1.47,-4.97 -1.1,-12.77 0,-18 -8.37,1.93 -17.51,1.69 -26,3 -8.48,1.32 -17.54,1.66 -25.93,3.07 -8.38,1.42 -17.66,2.08 -26,3 -8.34,0.93 -20.12,-0.23 -19.07,9.93 1.05,10.16 -0.78,18.96 0,29 8.24,-0.32 18.05,-0.86 25.93,-2.07 7.87,-1.21 16.37,-1.79 23.85,-3.15 7.48,-1.36 17.28,-0.93 24,-3 6.72,-2.07 18.7,0.74 23.22,-3.78 z"
       id="path5" />
  </g>
  <g
     fill="None"
     fill-opacity="0"
     stroke="#657602"
     stroke-opacity="1"
     stroke-width="0.3"
     id="g6"
     transform="matrix(0.25782554,0,0,0.25782554,-139.07614,-90.606769)">
    <path
       d="m 860,496 c 3.43,-3.43 0.16,-12.99 1,-18 0.84,-5.01 0.18,-13.53 -1,-18 -1.1,5.23 1.47,13.03 0,18 -1.47,4.97 2.82,13.97 0,18 z"
       id="path6" />
  </g>
  <g
     fill="None"
     fill-opacity="0"
     stroke="#000000"
     stroke-opacity="1"
     stroke-width="0.3"
     id="g7"
     transform="matrix(0.25782554,0,0,0.25782554,-139.07614,-90.606769)">
    <path
       d="m 755,653 c -4.4,0.43 -9.66,0.42 -14,0 -36.53,-0.49 -72.15,-25.76 -83,-61 -10,1.89 -18.95,7.35 -29,9 13.53,53.32 77.22,86.94 127.99,82.99 50.78,-3.94 116.85,-35.01 118.01,-92.99 0.07,-3.66 0,-7.34 0,-11 0,-26.33 -22.24,-51.28 -48.92,-43.92 -26.69,7.35 -31.33,34.1 -39.08,54.92 -7.75,20.81 -0.23,62 -32,62 m 54,-16 c 4.34,-12.02 2.77,-23.75 6.98,-36.02 4.2,-12.27 2.82,-19.48 11.94,-31.06 9.13,-11.57 19.45,4.32 17.08,16.08 -2.37,11.76 -3.01,22.93 -11.3,31.7 -8.3,8.77 -14.64,14.26 -24.7,19.3 z"
       id="path7" />
  </g>
  <g
     fill="None"
     fill-opacity="0"
     stroke="#d2f304"
     stroke-opacity="1"
     stroke-width="0.3"
     id="g8"
     transform="matrix(0.25782554,0,0,0.25782554,-139.07614,-90.606769)">
    <path
       d="m 809,637 c 10.06,-5.04 16.4,-10.53 24.7,-19.3 8.29,-8.77 8.93,-19.94 11.3,-31.7 2.37,-11.76 -7.95,-27.65 -17.08,-16.08 -9.12,11.58 -7.74,18.79 -11.94,31.06 -4.21,12.27 -2.64,24 -6.98,36.02 z"
       id="path8" />
  </g>
  <g
     fill="None"
     fill-opacity="0"
     stroke="#5f6f02"
     stroke-opacity="1"
     stroke-width="0.3"
     id="g9"
     transform="matrix(0.25782554,0,0,0.25782554,-139.07614,-90.606769)">
    <path
       d="m 875,591 c 0.42,-3.48 0.34,-7.49 0,-11 0,3.66 0.07,7.34 0,11 z"
       id="path9" />
  </g>
  <g
     fill="None"
     fill-opacity="0"
     stroke="#5b6d01"
     stroke-opacity="1"
     stroke-width="0.3"
     id="g10"
     transform="matrix(0.25782554,0,0,0.25782554,-139.07614,-90.606769)">
    <path
       d="m 755,653 c -4.67,0 -9.33,0 -14,0 4.34,0.42 9.6,0.43 14,0 z"
       id="path10" />
  </g>
  <g
     fill="#D7F615"
     fill-opacity="1.00"
     stroke="None"
     id="g12"
     style="fill:#faff69;fill-opacity:1"
     transform="matrix(0.25782554,0,0,0.25782554,-139.07614,-90.606769)">
    <path
       d="m 648,353 c 35.94,0 71.16,0.75 107,1 -1.03,2.81 -3.89,0.13 -5,2 1.53,2.03 -1.41,5.71 -4,5 0.37,-1.73 4.62,-3.49 2,-5 -2.37,0.9 -2.34,4.33 -5,5 3.25,1.58 1.13,3.83 -2,3 4.35,2.68 -0.72,7.19 -2.9,10.1 -2.19,2.91 -6.23,3.9 -9.1,1.9 -0.53,5.07 -8.51,6.17 -1,7 -2.28,1.1 -3.56,2.66 -6,0 1.99,3.59 -1.28,5.38 -5,6 5.22,-5.6 -0.96,-3.53 -4.23,-0.23 -3.27,3.3 -7.34,5.57 -10.77,8.23 0.96,1.47 4.97,-1.68 6,1 -5.47,-0.61 -10.37,8.44 -14,3 -2.71,3.6 0.71,2.76 2,5 -3.3,-0.79 -5.04,2.83 -8,3 0.28,-2.35 3.11,-3.53 4,-6 -6.9,3.32 -9.55,6.61 -14.96,10.04 -5.42,3.42 -14.97,5.14 -16.04,12.96 4.48,-4.89 9.14,-9.72 16,-11 -14.3,13.35 -29.26,18.13 -44,30 5.47,1.46 6.28,-5.67 12,-6 -2.6,3.03 -8.85,8.31 -11.78,10.56 -2.92,2.26 -6.39,9.89 -9.22,4.44 -2.06,2.62 -3.84,3.6 -1,7 -2.38,-2.55 -3.57,3.55 -6,1 -2.01,6.63 -8.79,16.16 -16,14 1.03,2.42 0.9,4.53 0,7 -3.07,-0.5 -2.58,1.31 -5,-1 -1.44,2.46 -5.36,3.59 -5,7 8.35,-4.71 -3.53,8.2 -2,-1 -0.98,2.65 -3.58,4.11 -2,7 -7.17,-0.85 -10.82,7.4 -17,11 0.92,2.22 5.38,-2.2 5,2 -5.26,1.28 -8.17,3.17 -13,1 -0.2,4.32 -0.17,2.48 3,5 -4.56,1.54 -8.46,3.88 -12,9 -3.34,-1.28 -6.71,1.17 -10,-1 1.9,2.55 1.03,3.36 -1,6 -0.24,-22.68 -1.6,-45.1 -1,-68 -2.96,30.59 -0.29,66.87 -1,98 -0.71,31.13 0.38,69.23 0,99 -0.38,29.77 7.78,52.38 24.75,74.25 16.97,21.88 32.49,31.73 59.03,39.97 26.53,8.24 63.39,3.86 93.22,4.78 29.83,0.92 69.27,-0.89 99,0 29.73,0.89 61.48,0.7 85.77,-13.23 24.29,-13.93 35.49,-25.35 49.31,-49.69 13.82,-24.34 13.77,-56.42 12.92,-86.08 -0.85,-29.66 0.88,-68.21 0,-98 -0.88,-29.79 3.45,-67.43 -5.02,-93.98 C 950.51,408.48 940.7,393.26 918.75,376.25 896.81,359.24 873.7,351.58 844,352 c -29.7,0.42 -68.01,-0.72 -99,0 -30.99,0.72 -66.52,-1.95 -97,1 m 25,107 c 26.7,4.78 38.08,42.26 19.75,61.75 -18.34,19.48 -52.2,16.79 -63.05,-10.44 C 618.85,484.07 642.78,454.58 673,460 m 187,36 c -4.52,4.52 -16.5,1.71 -23.22,3.78 -6.72,2.07 -16.52,1.64 -24,3 -7.48,1.36 -15.98,1.94 -23.85,3.15 -7.88,1.21 -17.69,1.75 -25.93,2.07 -0.78,-10.04 1.05,-18.84 0,-29 -1.05,-10.16 10.73,-9 19.07,-9.93 8.34,-0.92 17.62,-1.58 26,-3 8.39,-1.41 17.45,-1.75 25.93,-3.07 8.49,-1.31 17.63,-1.07 26,-3 1.18,4.47 1.84,12.99 1,18 -0.84,5.01 2.43,14.57 -1,18 m 15,84 c 0.34,3.51 0.42,7.52 0,11 -1.16,57.98 -67.23,89.05 -118.01,92.99 C 706.22,687.94 642.53,654.32 629,601 c 10.05,-1.65 19,-7.11 29,-9 10.85,35.24 46.47,60.51 83,61 4.67,0 9.33,0 14,0 31.77,0 24.25,-41.19 32,-62 7.75,-20.82 12.39,-47.57 39.08,-54.92 C 852.76,528.72 875,553.67 875,580 Z"
       id="path12"
       style="fill:#faff69;fill-opacity:1" />
  </g>
  <g
     fill="#F4F34B"
     fill-opacity="1.00"
     stroke="None"
     id="g13"
     style="fill:#faff69;fill-opacity:1"
     transform="matrix(0.25782554,0,0,0.25782554,-139.07614,-90.606769)">
    <path
       d="m 541,460 c -0.6,22.9 0.76,45.32 1,68 2.03,-2.64 2.9,-3.45 1,-6 3.29,2.17 6.66,-0.28 10,1 3.54,-5.12 7.44,-7.46 12,-9 -3.17,-2.52 -3.2,-0.68 -3,-5 4.83,2.17 7.74,0.28 13,-1 0.38,-4.2 -4.08,0.22 -5,-2 6.18,-3.6 9.83,-11.85 17,-11 -1.58,-2.89 1.02,-4.35 2,-7 -1.53,9.2 10.35,-3.71 2,1 -0.36,-3.41 3.56,-4.54 5,-7 2.42,2.31 1.93,0.5 5,1 0.9,-2.47 1.03,-4.58 0,-7 7.21,2.16 13.99,-7.37 16,-14 2.43,2.55 3.62,-3.55 6,-1 -2.84,-3.4 -1.06,-4.38 1,-7 2.83,5.45 6.3,-2.18 9.22,-4.44 2.93,-2.25 9.18,-7.53 11.78,-10.56 -5.72,0.33 -6.53,7.46 -12,6 14.74,-11.87 29.7,-16.65 44,-30 -6.86,1.28 -11.52,6.11 -16,11 1.07,-7.82 10.62,-9.54 16.04,-12.96 5.41,-3.43 8.06,-6.72 14.96,-10.04 -0.89,2.47 -3.72,3.65 -4,6 2.96,-0.17 4.7,-3.79 8,-3 -1.29,-2.24 -4.71,-1.4 -2,-5 3.63,5.44 8.53,-3.61 14,-3 -1.03,-2.68 -5.04,0.47 -6,-1 3.43,-2.66 7.5,-4.93 10.77,-8.23 3.27,-3.3 9.45,-5.37 4.23,0.23 3.72,-0.62 6.99,-2.41 5,-6 2.44,2.66 3.72,1.1 6,0 -7.51,-0.83 0.47,-1.93 1,-7 2.87,2 6.91,1.01 9.1,-1.9 2.18,-2.91 7.25,-7.42 2.9,-10.1 3.13,0.83 5.25,-1.42 2,-3 2.66,-0.67 2.63,-4.1 5,-5 2.62,1.51 -1.63,3.27 -2,5 2.59,0.71 5.53,-2.97 4,-5 1.11,-1.87 3.97,0.81 5,-2 -35.84,-0.25 -71.06,-1 -107,-1 -54.61,0 -107,52.41 -107,107 z"
       id="path13"
       style="fill:#faff69;fill-opacity:1" />
  </g>
  <g
     fill="#000000"
     fill-opacity="1"
     stroke="None"
     id="g14"
     transform="matrix(0.25782554,0,0,0.25782554,-139.07614,-90.606769)">
    <path
       d="m 673,460 c -30.22,-5.42 -54.15,24.07 -43.3,51.31 10.85,27.23 44.71,29.92 63.05,10.44 C 711.08,502.26 699.7,464.78 673,460 Z"
       id="path14" />
  </g>
  <g
     fill="#000000"
     fill-opacity="1"
     stroke="None"
     id="g15"
     transform="matrix(0.25782554,0,0,0.25782554,-139.07614,-90.606769)">
    <path
       d="m 860,496 c 2.82,-4.03 -1.47,-13.03 0,-18 1.47,-4.97 -1.1,-12.77 0,-18 -8.37,1.93 -17.51,1.69 -26,3 -8.48,1.32 -17.54,1.66 -25.93,3.07 -8.38,1.42 -17.66,2.08 -26,3 -8.34,0.93 -20.12,-0.23 -19.07,9.93 1.05,10.16 -0.78,18.96 0,29 8.24,-0.32 18.05,-0.86 25.93,-2.07 7.87,-1.21 16.37,-1.79 23.85,-3.15 7.48,-1.36 17.28,-0.93 24,-3 6.72,-2.07 18.7,0.74 23.22,-3.78 z"
       id="path15" />
  </g>
  <g
     fill="#657602"
     fill-opacity="1"
     stroke="None"
     id="g16"
     transform="matrix(0.25782554,0,0,0.25782554,-139.07614,-90.606769)">
    <path
       d="m 860,496 c 3.43,-3.43 0.16,-12.99 1,-18 0.84,-5.01 0.18,-13.53 -1,-18 -1.1,5.23 1.47,13.03 0,18 -1.47,4.97 2.82,13.97 0,18 z"
       id="path16" />
  </g>
  <g
     fill="#000000"
     fill-opacity="1"
     stroke="None"
     id="g17"
     transform="matrix(0.25782554,0,0,0.25782554,-139.07614,-90.606769)">
    <path
       d="m 755,653 c -4.4,0.43 -9.66,0.42 -14,0 -36.53,-0.49 -72.15,-25.76 -83,-61 -10,1.89 -18.95,7.35 -29,9 13.53,53.32 77.22,86.94 127.99,82.99 50.78,-3.94 116.85,-35.01 118.01,-92.99 0.07,-3.66 0,-7.34 0,-11 0,-26.33 -22.24,-51.28 -48.92,-43.92 -26.69,7.35 -31.33,34.1 -39.08,54.92 -7.75,20.81 -0.23,62 -32,62 m 54,-16 c 4.34,-12.02 2.77,-23.75 6.98,-36.02 4.2,-12.27 2.82,-19.48 11.94,-31.06 9.13,-11.57 19.45,4.32 17.08,16.08 -2.37,11.76 -3.01,22.93 -11.3,31.7 -8.3,8.77 -14.64,14.26 -24.7,19.3 z"
       id="path17" />
  </g>
  <g
     fill="#d2f304"
     fill-opacity="1"
     stroke="None"
     id="g18"
     transform="matrix(0.25782554,0,0,0.25782554,-139.07614,-90.606769)">
    <path
       d="m 809,637 c 10.06,-5.04 16.4,-10.53 24.7,-19.3 8.29,-8.77 8.93,-19.94 11.3,-31.7 2.37,-11.76 -7.95,-27.65 -17.08,-16.08 -9.12,11.58 -7.74,18.79 -11.94,31.06 -4.21,12.27 -2.64,24 -6.98,36.02 z"
       id="path18" />
  </g>
  <g
     fill="#5f6f02"
     fill-opacity="1"
     stroke="None"
     id="g19"
     transform="matrix(0.25782554,0,0,0.25782554,-139.07614,-90.606769)">
    <path
       d="m 875,591 c 0.42,-3.48 0.34,-7.49 0,-11 0,3.66 0.07,7.34 0,11 z"
       id="path19" />
  </g>
  <g
     fill="#5b6d01"
     fill-opacity="1"
     stroke="None"
     id="g20"
     transform="matrix(0.25782554,0,0,0.25782554,-139.07614,-90.606769)">
    <path
       d="m 755,653 c -4.67,0 -9.33,0 -14,0 4.34,0.42 9.6,0.43 14,0 z"
       id="path20" />
  </g>
  <path
     style="fill:#faff69;fill-opacity:1;stroke-width:0.257826"
     id="path21"
     d="m 53.042266,1.3209212 c -0.41454,0.59422 -0.8121,1.20209 -1.14475,1.84663 -0.33597,0.53636 -0.50454,1.16275 -0.88057,1.67309 -0.33887,0.59979 -0.93252,0.86432 -1.51809,1.1755 -1.00999,0.39496 -1.99571,0.80398 -2.96081,1.29705 -0.12787,0.0508 -0.25971,0.0927 -0.38362,0.15252 -0.44867,0.21674 -0.1519,0.13618 -0.56795,0.32073 -0.23417,0.10388 -0.46723,0.14193 -0.69835,0.25562 -0.54079,0.20534 -1.12925,0.34469 -1.61142,0.67312 -0.48673,0.19649 -0.87578,0.51657 -1.28823,0.83026 -0.55233,0.41028 -1.16323,0.7355998 -1.75282,1.0903498 -0.44469,0.16413 -0.67159,0.55022 -0.99893,0.85249 -0.7595,0.93435 0.99987,1.69539 1.92417,1.37748 1.48563,-0.68536 2.96591,-1.3876 4.40074,-2.17448 1.29142,-0.7130798 2.4515,-1.6479698 3.58511,-2.5870798 0.49008,-0.4338 1.12691,-0.58295 1.69231,-0.88309 0.0679,0.73344 0.0367,0.0764 -1.60537,-0.84185 -0.0546,-0.0305 0.0617,0.0527 -2.6e-4,0.18659 -0.0794,0.17152 -0.44614,0.43857 -0.51753,0.49956 -2.05269,1.64066 -4.24257,3.0892498 -6.47714,4.4678798 -1.42103,0.9819 -3.08642,1.54682 -4.51754,2.5029 -0.61493,0.44662 -1.29601,0.73051 -2.00885,0.97777 -0.64117,0.0745 -1.2161,0.36506 -1.84925,0.47208 -0.62012,0.005 -1.17629,0.11083 -1.74295,0.36994 -0.81169,0.30873 -1.53694,0.74608 -2.2656,1.20963 -0.55075,0.37905 -1.15553,0.67655 -1.58336,1.20287 -0.28675,0.29645 -0.41885,0.66727 -0.60526,1.02384 -0.22806,0.48163 -0.51464,0.9649 -0.84167,1.38903 -0.88205,1.2976 -1.37152,0.47974 1.04921,1.88969 0.7871,-0.38782 1.56688,-0.79262 2.34282,-1.20485 0.82467,-0.53889 1.59494,-1.16328 2.36414,-1.78011 0.63177,-0.64188 1.36487,-1.12607 2.1365,-1.57676 0.56665,-0.44903 1.1246,-0.90551 1.64928,-1.40379 0.47763,-0.39276 1.02815,-0.6505 1.56621,-0.94305 0.4707,-0.0861 0.89263,-0.25707 1.34141,-0.41631 0.0308,-0.006 0.39588,-0.0826 0.44186,-0.0741 0.0523,0.01 0.17766,0.11689 0.13093,0.0914 -1.91981,-1.047 -1.15167,-1.20015 -1.65144,-0.78939 -0.85284,0.73706 -1.79786,1.3324 -2.64772,2.07582 -1.06976,0.95195 -2.11371,1.91974 -3.2554,2.7879 -0.85751,0.71923 -1.72963,1.40468 -2.77673,1.81945 -0.90335,0.45759 -1.85459,0.77445 -2.81793,1.08028 -0.69701,0.35239 -1.45948,0.49955 -2.20203,0.71869 -0.25416,0.13266 -0.55375,0.0895 -0.81974,0.15515 -0.24186,0.0597 -0.47736,0.19936 -0.71961,0.2708 -0.46108,0.13611 -0.89409,0.39157 -1.30569,0.6418 -0.44328,0.33052 -0.93771,0.56381 -1.36116,0.92457 -0.43272,0.39425 -0.8283,0.82749 -1.23584,1.24736 -0.39526,0.45884 -0.92307,0.81431 -1.25131,1.32608 -0.2873,0.38799 -0.6034,0.72957 -0.97826,1.03603 -0.39988,0.37098 -0.85295,0.64163 -1.3183,0.91867 -0.0743,0.0285 -0.14753,0.0601 -0.22295,0.0855 -0.0957,0.0323 -0.21919,0.0649 -0.32262,0.0777 -0.0258,0.003 -0.10073,-0.0109 -0.0781,0.002 1.6875,0.95926 1.88107,1.45742 1.61418,0.82235 0.42977,-0.79601 1.27323,-1.35611 1.99682,-1.86435 0.86679,-0.64337 1.79522,-1.18722 2.76743,-1.65408 1.10031,-0.51059 2.15447,-1.11483 3.26871,-1.59657 0.48975,-0.19294 0.92036,-0.52035 1.39832,-0.72729 0.41673,-0.13047 0.91745,-0.25466 1.26829,-0.5219 0.35119,-0.0885 0.43701,-0.45872 0.722,-0.61935 0.19322,0.70526 0.0326,0.02 -1.57152,-0.8024 -0.0372,-0.0191 0.0474,0.0731 0.0508,0.11474 0.003,0.0397 -0.0117,0.0807 -0.0319,0.11503 -0.0752,0.12794 -0.29705,0.34028 -0.38204,0.42811 -0.86958,0.72676 -1.64465,1.55698 -2.57216,2.21621 -0.77286,0.58464 -1.62321,1.03104 -2.52009,1.38911 -0.80681,0.3713 -1.63934,0.70973 -2.51866,0.86044 -0.5479,0.18934 -1.08384,0.36264 -1.66641,0.37987 -0.33588,0.22899 -0.75092,0.26268 -1.0975,0.45023 -0.42791,0.13603 -0.77133,0.41775 -1.11406,0.70112 -0.36415,0.33843 -0.64604,0.77704 -0.87942,1.21712 -0.40708,0.49634 -0.67926,1.07517 -0.99777,1.62631 -0.24487,0.44043 -0.472,0.87623 -0.79712,1.26585 -0.1996,0.31195 -0.44699,0.62783 -0.75356,0.84168 -0.22327,0.16496 -0.38143,0.41483 -0.58951,0.60626 -0.31881,0.41677 -0.7694405,0.72138 -1.1667505,1.06285 -0.38891,0.35084 -0.75201,0.7284 -1.1212,1.09951 -0.28676,0.27418 -0.56492,0.50775 -0.6422,0.91008 4.4899505,2.2516 1.21826,1.27498 1.80417,0.65731 0.14128,-0.14893 0.37831,-0.25787 0.5445,-0.37376 0.5172105,-0.37311 0.9778705,-0.81414 1.4886605,-1.1955 0.57127,-0.398 1.01616,-0.94979 1.66539,-1.21989 0.51375,-0.20497 0.98295,-0.46388 1.47006,-0.71964 0.35857,-0.30732 0.82295,-0.3523 1.18529,-0.64502 0.28491,-0.1773 0.53984,-0.45404 0.7381,-0.72919 0.23496,-0.26553 0.35746,-0.58557 0.52184,-0.89319 0.21686,-0.46671 0.51443,-0.88541 0.77687,-1.32645 0.28445,-0.44944 0.47993,-0.94534 0.77303,-1.38899 0.20314,-0.43926 0.56281,-0.77151 0.86257,-1.14652 0.27219,-0.34885 0.64613,-0.6008 0.94784,-0.91753 0.0346,-0.0433 0.0627,-0.0928 0.10388,-0.13001 0.29448,-0.26617 -0.0547,0.10777 0.23231,-0.11646 0.1209,-0.0944 0.14512,-0.22527 0.27368,-0.30782 0.6776,-0.31527 0.86867,0.26181 -1.4719,-0.92166 -0.0211,-0.0107 0.0426,0.0264 0.0522,0.0481 0.0352,0.0796 0.0318,0.20859 0.0352,0.29042 0.026,0.42232 -0.0208,0.79791 -0.16842,1.19072 -0.49016,0.84731 -1.39602,1.40962 -2.16751,1.98435 -1.07102,0.98163 -2.14879,1.95331 -3.27774,2.86783 -0.90913,0.65293 -1.63701,1.51958 -2.51089,2.20972 -0.52492,0.41616 -1.01547,0.87208 -1.5444905,1.28649 -0.29791,0.16936 -0.40823,0.48932 -0.64807,0.70476 -0.22673,0.26036 -0.42476,0.51201 -0.612,0.80919 -0.1645,0.30553 -0.46837,0.50122 -0.6243,0.80598 -0.18964,0.30298 -0.43351,0.5478 -0.6467,0.8338 -0.2537,0.2913 -0.40439,0.63448 -0.71945,0.86857 -0.17039,0.22681 -0.45186,0.2983 -0.6374,0.46653 -0.18251,0.23675 -0.4803,0.23988 -0.7557,0.23828 -0.27236,0.18226 -0.48583,0.34277 -0.81941,0.35895 -0.31278,0.18242 -0.69202,0.19633 -1.02236,0.31782 -0.15858,0.0583 -0.29742,0.16053 -0.4483,0.23659 -0.21601,0.12277 -0.44628,0.22412 -0.69848,0.16323 -0.0846,0.15209 -0.24734,0.3981 -0.44721,0.37091 -0.26456,-0.0491 -0.35078,0.18162 -0.38622,0.40807 -0.0126,0.25168 -0.19013,0.48719 -0.30495,0.71306 -0.0853,0.18233 -0.046,0.40192 -0.0382,0.59661 0.0175,0.42098 0.0122,0.84243 0.0127,1.26365 -0.002,0.36419 -0.003,0.7284 -0.002,1.09259 -0.003,0.39073 0.002,0.78145 7.8e-4,1.17217 -7.8e-4,0.31514 8e-5,0.63033 -0.004,0.94545 -0.001,0.19609 10e-4,0.39222 10e-4,0.58833 0.008,0.31101 0.23202,0.55954 0.33816,0.84652 0.0631,0.40452 0.0264,0.78204 0.17854,1.17067 0.17602,0.35561 0.20219,0.74433 0.37303,1.10075 0.20836,0.39007 0.19524,0.83032 0.36262,1.23621 0.16799,0.37872 0.21392,0.78233 0.3652,1.16707 0.12589,0.44179 0.32654,0.84716 0.57059,1.23509 0.23629,0.32998 0.42091,0.69667 0.60741,1.0572 0.17782,0.29382 0.42315,0.55674 0.48452,0.90333 1.55421,0.9969 2.16543,1.20908 1.4824,0.43988 -0.0812,-0.10478 -0.0453,-0.0562 -0.10888,-0.14505 0,0 -1.77984,-0.7804 -1.77984,-0.7804 v 0 c 0.0612,0.10138 0.0265,0.0465 0.10559,0.16379 0.0571,0.0787 0.0815,0.19484 0.16866,0.23798 0.1466,0.0726 0.0946,-0.12613 0.11921,0.04 0.58508,0.31186 1.17017,0.62372 1.75526,0.93558 -0.001,-0.0109 -0.002,-0.0218 -0.004,-0.0327 -0.0296,-0.37037 -0.20143,-0.69214 -0.46484,-0.95794 -0.14796,-0.38024 -0.38904,-0.7421 -0.59506,-1.08934 -0.27054,-0.36302 -0.46627,-0.76288 -0.59017,-1.19434 -0.0511,-0.13702 -0.13177,-0.26267 -0.17423,-0.4026 -0.0756,-0.24918 -0.0295,-0.54235 -0.18318,-0.77501 -0.21695,-0.4212 -0.17236,-0.81627 -0.36136,-1.23855 -0.0541,-0.11343 -0.14509,-0.20968 -0.18333,-0.32937 -0.0779,-0.24388 -0.0205,-0.54208 -0.19501,-0.76209 -0.053,-0.12225 -0.14203,-0.23222 -0.16725,-0.36305 -0.049,-0.2543 0.0623,-0.53904 -0.01,-0.79481 -0.051,-0.1559 -0.099,-0.33372 -0.18111,-0.47604 -0.0469,-0.0813 -0.14558,-0.1272 -0.18442,-0.21259 -0.0137,-0.0302 -5.1e-4,-0.0663 -7.7e-4,-0.0994 -1e-4,-0.1958 0.002,-0.39163 10e-4,-0.5874 -0.004,-0.31643 -0.003,-0.63291 -0.004,-0.94935 -10e-4,-0.39045 0.003,-0.78089 7.8e-4,-1.17134 0.002,-0.3644 2.5e-4,-0.72882 2.5e-4,-1.09322 0.002,-0.42258 -10e-4,-0.84517 -0.003,-1.26774 -0.006,-0.16571 -0.0376,-0.35279 -0.005,-0.51138 0.11644,-0.25142 0.31112,-0.51209 0.34258,-0.77783 -0.0139,-0.20117 0.0769,-0.17307 0.25331,-0.19406 0.18657,-0.0799 0.32419,-0.20436 0.45384,-0.36154 0.0104,-0.0126 -0.0228,0.0235 -0.0342,0.0353 0.27114,-0.0234 0.51337,-0.11226 0.74591,-0.25505 0.45715,-0.22898 0.9488,-0.35021 1.43801,-0.49662 0.30752,-0.0587 0.53015,-0.23325 0.81308,-0.34451 0.30759,-0.0282 0.61044,-0.092 0.82194,-0.33798 0.23043,-0.13624 0.44175,-0.2839 0.63966,-0.46929 0.30482,-0.26473 0.48324,-0.60775 0.74256,-0.91186 0.21745,-0.29428 0.46958,-0.55147 0.66481,-0.86267 0.1433,-0.29851 0.4690305,-0.48211 0.6107405,-0.78967 0.18176,-0.27831 0.36718,-0.52501 0.59255,-0.76751 0.22409,-0.22647 0.35014,-0.51951 0.63542,-0.69354 0.51345,-0.42895 1.00921,-0.87745 1.52935,-1.29589 0.85735,-0.70862 1.59645,-1.55578 2.49347,-2.22135 1.12348,-0.91783 2.20206,-1.8851 3.27827,-2.85785 0.80406,-0.59825 1.7385,-1.17702 2.24746,-2.06259 0.16369,-0.41745 0.23656,-0.79949 0.20955,-1.25305 0.004,-1.03724 -0.78147,-2.07292 -1.98587,-1.3241 -0.20852,0.19255 -0.40189,0.38835 -0.61793,0.57459 -0.32033,0.30821 -0.6725,0.58909 -0.95077,0.93822 -0.30839,0.3747 -0.67364,0.71569 -0.87731,1.16141 -0.2878,0.45017 -0.49251,0.9425 -0.77166,1.398 -0.26608,0.44172 -0.56762,0.86088 -0.78642,1.32962 -0.16592,0.29736 -0.2805,0.61274 -0.51333,0.87041 -0.19022,0.2641 -0.43694,0.50659 -0.70853,0.68255 -0.3554,0.26469 -0.82518,0.32035 -1.16663,0.6189 -0.47452,0.26426 -0.95337,0.50141 -1.45447,0.7136 -0.64098,0.31251 -1.10934,0.84863 -1.6893805,1.25642 -0.49975,0.39011 -0.96974,0.81662 -1.4867,1.18452 -1.18135,0.78813 -0.84005,0.82213 0.99636,1.65907 0.0171,-0.36355 0.3423,-0.55954 0.57151,-0.80569 0.3617605,-0.37118 0.7254805,-0.74136 1.1114005,-1.08764 0.39816,-0.34811 0.84895,-0.65221 1.1778,-1.06892 0.19235,-0.19517 0.36112,-0.41908 0.57765,-0.58433 0.30421,-0.24194 0.56778,-0.55682 0.77283,-0.88466 0.3243,-0.40205 0.56886,-0.84059 0.80955,-1.29484 0.32047,-0.55266 0.59036,-1.13427 0.99932,-1.63313 0.2233,-0.41605 0.49686,-0.82817 0.84555,-1.14624 0.34139,-0.26445 0.67076,-0.5343 1.09062,-0.66276 0.34749,-0.13886 0.70782,-0.2485 1.05434,-0.38949 0.58006,-0.049 1.11505,-0.2439 1.67,-0.40783 0.88202,-0.18183 1.72099,-0.52518 2.54014,-0.89301 0.89992,-0.38039 1.75582,-0.83401 2.53131,-1.43487 0.92931,-0.67373 1.72336,-1.50549 2.6068,-2.23435 0.13642,-0.13935 0.33241,-0.31892 0.43586,-0.49397 0.46584,-0.78821 -1.0366,-1.76746 -1.77597,-1.41079 -0.26274,0.19615 -0.3849,0.51141 -0.72003,0.62441 -0.38351,0.2277 -0.83111,0.35418 -1.25111,0.49776 -0.46101,0.24238 -0.90678,0.51322 -1.38183,0.73211 -1.10016,0.51329 -2.16198,1.10458 -3.26873,1.60425 -0.97156,0.48591 -1.90786,1.02704 -2.77321,1.68726 -0.78149,0.56278 -1.6676,1.15144 -2.13194,2.02003 -0.0708,1.30373 1.63366,1.34881 2.36934,0.92555 0.46916,-0.28405 0.92452,-0.5699 1.33016,-0.94394 0.39008,-0.31746 0.71707,-0.68135 1.01445,-1.08558 0.31962,-0.49952 0.84254,-0.84425 1.22029,-1.29834 0.40822,-0.4114 0.80505,-0.83523 1.23364,-1.22559 0.42361,-0.34163 0.90719,-0.58102 1.34689,-0.89943 0.40304,-0.24145 0.82644,-0.47459 1.27905,-0.60406 0.50844,-0.16849 1.00761,-0.31306 1.53165,-0.42764 0.74168,-0.22132 1.50103,-0.3791 2.19988,-0.72593 0.96165,-0.31793 1.91369,-0.6431 2.82181,-1.09566 1.04571,-0.44825 1.93242,-1.13308 2.79546,-1.86675 1.139,-0.87626 2.18207,-1.8514 3.25882,-2.80006 0.85815,-0.74483 1.81915,-1.33098 2.68451,-2.06506 0.9298,-0.98909 -1.33447,-1.67718 -2.17328,-1.32053 -0.44733,0.17806 -0.90289,0.27771 -1.35362,0.44068 -0.54825,0.30164 -1.10863,0.57579 -1.58802,0.98778 -0.51636,0.48553 -1.05964,0.93703 -1.62111,1.36958 -0.77896,0.45428 -1.50147,0.96936 -2.14924,1.60171 -0.76245,0.60605 -1.51381,1.23678 -2.33965,1.75303 -0.75551,0.39591 -1.50577,0.8342 -2.31371,1.1099 2.56454,1.72745 1.07288,1.4165 1.62108,0.86801 0.1994,-0.1995 0.43033,-0.36693 0.55438,-0.63223 0.32821,-0.43738 0.63371,-0.92048 0.86478,-1.41335 0.17991,-0.34562 0.31077,-0.70253 0.58578,-0.99079 0.40856,-0.50997 1.01674,-0.78338 1.53883,-1.158 0.71633,-0.46619 1.45009,-0.87265 2.25035,-1.1815 0.56316,-0.22575 1.12393,-0.28627 1.72354,-0.33255 0.63028,-0.13333 1.22441,-0.39329 1.86229,-0.49906 0.71936,-0.26302 1.40935,-0.55914 2.02762,-1.02168 1.42203,-0.94336 3.03962,-1.56938 4.44919,-2.53956 2.24405,-1.39658 4.45522,-2.8427498 6.55425,-4.4516898 0.14254,-0.11957 0.29579,-0.22742 0.42763,-0.3587 0.73846,-0.7353 -0.62701,-1.88162 -1.54802,-1.55843 -0.56576,0.30763 -1.2044,0.47832 -1.68354,0.93453 -1.12035,0.93563 -2.26936,1.86185 -3.55304,2.56455 -1.42877,0.7873998 -2.90196,1.5057698 -4.41351,2.1198598 -0.84622,0.23533 -0.21818,-0.006 1.27797,1.03217 0.0294,0.0204 -0.0759,0.0479 -0.10426,0.026 -0.0454,-0.0351 0.13204,-0.31082 0.14638,-0.33345 0.30725,-0.30548 0.54539,-0.6517 0.9671,-0.82347 0.59037,-0.36815 1.21473,-0.6827 1.76852,-1.10551 0.40241,-0.3181 0.81235,-0.5975898 1.27913,-0.8155998 0.4958,-0.29605 1.06322,-0.4385 1.5969,-0.64917 0.5588,-0.23013 1.10527,-0.46423 1.64153,-0.74623 0.96073,-0.50182 1.95996,-0.88271 2.95988,-1.29929 0.61418,-0.3194 1.22428,-0.61671 1.578,-1.24264 0.37311,-0.52644 0.55716,-1.15001 0.89231,-1.69988 0.32678,-0.63983 0.71406,-1.24574 1.1387,-1.82482 z" />
</svg>
