<?xml version="1.0" encoding="UTF-8" standalone="no"?>
<svg
   width="500"
   zoomAndPan="magnify"
   viewBox="0 0 375 374.999991"
   height="500"
   preserveAspectRatio="xMidYMid meet"
   version="1.0"
   id="svg8"
   sodipodi:docname="portcullis.svg"
   inkscape:version="1.3.2 (091e20e, 2023-11-25)"
   xmlns:inkscape="http://www.inkscape.org/namespaces/inkscape"
   xmlns:sodipodi="http://sodipodi.sourceforge.net/DTD/sodipodi-0.dtd"
   xmlns="http://www.w3.org/2000/svg"
   xmlns:svg="http://www.w3.org/2000/svg">
  <defs
     id="defs8" />
  <sodipodi:namedview
     id="namedview8"
     pagecolor="#ffffff"
     bordercolor="#000000"
     borderopacity="0.25"
     inkscape:showpageshadow="2"
     inkscape:pageopacity="0.0"
     inkscape:pagecheckerboard="0"
     inkscape:deskcolor="#d1d1d1"
     inkscape:zoom="0.472"
     inkscape:cx="248.94068"
     inkscape:cy="250"
     inkscape:window-width="1312"
     inkscape:window-height="449"
     inkscape:window-x="0"
     inkscape:window-y="37"
     inkscape:window-maximized="0"
     inkscape:current-layer="svg8" />
  <path
     stroke-linecap="butt"
     transform="matrix(0.75, 0, 0, 0.75, -371.028722, -235.21311)"
     fill="none"
     stroke-linejoin="miter"
     d="M 861.137311 742.909196 L 838.585227 742.909196 C 837.960226 742.909196 837.647726 742.596696 837.647726 741.971696 C 837.507101 661.789399 837.533143 580.73731 837.720643 498.805013 C 837.757101 485.52897 836.85606 474.325845 835.022726 465.185219 C 824.184184 411.377924 781.626889 369.028963 727.251886 357.982087 C 651.585214 342.591461 579.574793 392.013339 564.762292 466.836261 C 563.085208 475.263345 562.272708 486.284179 562.324792 499.90918 C 562.512292 567.278976 562.543542 656.518565 562.418542 767.617531 C 562.418542 767.784197 562.475833 767.924822 562.595625 768.044614 C 562.710208 768.159197 562.850833 768.221697 563.0175 768.221697 L 936.861275 768.221697 C 937.600858 768.221697 937.97065 767.851906 937.97065 767.112322 C 937.84565 681.19565 937.850858 594.357103 937.986275 506.601888 C 938.022733 491.039387 937.330025 478.919595 935.90815 470.232094 C 927.074816 416.065424 885.361271 371.107088 831.402934 358.94042 C 828.751893 358.341462 828.632101 358.669587 831.043559 359.935212 C 872.04877 381.346672 902.121689 420.773758 910.09044 467.268553 C 911.553981 475.794595 912.272731 485.982095 912.24669 497.831055 C 912.05919 580.586268 912.038356 661.90919 912.189398 741.805029 C 912.189398 742.539404 911.819606 742.909196 911.085231 742.909196 L 888.751896 742.909196 C 888.11648 742.909196 887.798771 742.591487 887.798771 741.950862 C 887.673771 663.586274 887.684188 583.476894 887.83523 501.633138 C 887.861271 488.763346 887.137313 477.99772 885.658146 469.351886 C 876.397729 414.752924 835.527935 372.122713 781.830014 358.825837 C 778.819598 358.091462 778.673764 358.466462 781.397723 359.950837 C 832.356059 387.773756 862.335228 437.159176 862.376895 495.034179 C 862.449811 580.742518 862.460228 662.94044 862.413353 741.633154 C 862.413353 742.482112 861.98627 742.909196 861.137311 742.909196 "
     stroke="#808080"
     stroke-width="2"
     stroke-opacity="1"
     stroke-miterlimit="4"
     id="path1" />
  <path
     stroke-linecap="butt"
     transform="matrix(0.75, 0, 0, 0.75, -371.028722, -235.21311)"
     fill="none"
     stroke-linejoin="miter"
     d="M 612.173753 493.872721 C 612.21542 454.237302 628.543546 416.758133 657.923756 390.586256 C 660.486256 388.299797 660.19459 387.851881 657.059173 389.237297 C 622.470629 404.48209 598.809169 432.450842 590.298752 469.049803 C 588.64771 476.12272 587.814377 483.049804 587.80396 489.825846 C 587.751877 574.20606 587.746668 658.242523 587.783127 741.935237 C 587.783127 742.206071 587.876877 742.435237 588.069585 742.622737 C 588.262293 742.815446 588.49146 742.909196 588.757085 742.909196 L 611.142503 742.909196 C 611.423753 742.909196 611.663337 742.810237 611.861253 742.612321 C 612.05917 742.414404 612.158128 742.174821 612.158128 741.898779 C 612.106045 658.50294 612.111253 575.83106 612.173753 493.872721 "
     stroke="#808080"
     stroke-width="2"
     stroke-opacity="1"
     stroke-miterlimit="4"
     id="path2" />
  <path
     stroke-linecap="butt"
     transform="matrix(0.75, 0, 0, 0.75, -371.028722, -235.21311)"
     fill="none"
     stroke-linejoin="miter"
     d="M 707.45501 389.143547 C 677.210216 402.35709 656.423756 423.773758 645.100839 453.393552 C 640.397714 465.706052 638.038338 476.56022 638.012297 485.961262 C 637.861255 568.976893 637.840422 654.305023 637.955005 741.935237 C 637.955005 742.586279 638.277922 742.909196 638.928963 742.909196 L 661.314382 742.909196 C 661.928965 742.909196 662.236257 742.601904 662.236257 741.992529 C 662.371673 663.685232 662.345632 584.758144 662.158132 505.216472 C 662.121673 489.555012 662.861257 477.46647 664.371673 468.956053 C 669.835215 438.107092 684.434175 411.872716 708.168551 390.247714 C 710.168551 388.435214 709.928968 388.070631 707.45501 389.143547 "
     stroke="#808080"
     stroke-width="2"
     stroke-opacity="1"
     stroke-miterlimit="4"
     id="path3" />
  <path
     stroke-linecap="butt"
     transform="matrix(0.75, 0, 0, 0.75, -371.028722, -235.21311)"
     fill="none"
     stroke-linejoin="miter"
     d="M 746.49147 394.357089 C 715.632093 412.252924 696.746676 438.044592 689.830008 471.732095 C 688.220633 479.617512 687.423758 490.893554 687.4498 505.555013 C 687.611258 587.544602 687.663342 666.325857 687.600842 741.898779 C 687.600842 742.570654 687.934175 742.909196 688.595633 742.909196 L 811.267516 742.909196 C 811.918558 742.909196 812.241475 742.591487 812.241475 741.950862 C 812.277933 662.320649 812.298766 582.685227 812.298766 503.039388 C 812.298766 488.278971 811.501891 477.320637 809.918558 470.153969 C 802.402932 436.383134 783.017515 410.752924 751.757096 393.268548 C 751.194596 392.945631 750.600846 392.857089 749.975846 393.008131 C 748.705012 393.294589 747.538346 393.742506 746.49147 394.357089 "
     stroke="#808080"
     stroke-width="2"
     stroke-opacity="1"
     stroke-miterlimit="4"
     id="path4" />
  <path
     fill="#000000"
     d="M 275.777344 321.007812 C 275.8125 261.988281 275.800781 200.339844 275.734375 136.0625 C 275.695312 92.652344 253.222656 55.617188 215.003906 34.75 C 212.960938 33.632812 213.070312 33.351562 215.332031 33.90625 C 255.601562 43.875 286.253906 75.851562 293.203125 116.796875 C 294.308594 123.285156 294.851562 131.355469 294.832031 141.011719 C 294.71875 202.390625 294.707031 262.472656 294.792969 321.246094 C 294.792969 321.726562 295.03125 321.964844 295.511719 321.964844 L 312.257812 321.964844 C 312.808594 321.964844 313.085938 321.6875 313.085938 321.136719 C 312.972656 261.214844 312.988281 200.222656 313.128906 138.15625 C 313.15625 129.269531 312.617188 121.628906 311.515625 115.234375 C 305.539062 80.363281 282.984375 50.792969 252.230469 34.734375 C 250.421875 33.789062 250.511719 33.539062 252.5 33.988281 C 292.96875 43.117188 324.253906 76.835938 330.878906 117.457031 C 331.945312 123.972656 332.46875 133.066406 332.4375 144.738281 C 332.335938 210.550781 332.335938 275.679688 332.4375 340.117188 C 332.4375 340.671875 332.160156 340.949219 331.609375 340.949219 L 51.226562 340.949219 C 51.101562 340.949219 50.996094 340.902344 50.90625 340.816406 C 50.820312 340.726562 50.777344 340.621094 50.777344 340.496094 C 50.871094 257.171875 50.847656 190.242188 50.707031 139.714844 C 50.671875 129.5 51.28125 121.230469 52.535156 114.914062 C 63.644531 58.792969 117.652344 21.726562 174.40625 33.273438 C 215.183594 41.554688 247.101562 73.320312 255.230469 113.675781 C 256.609375 120.527344 257.28125 128.929688 257.253906 138.886719 C 257.113281 200.335938 257.09375 261.125 257.199219 321.261719 C 257.199219 321.730469 257.433594 321.964844 257.902344 321.964844 L 274.816406 321.964844 C 275.453125 321.964844 275.773438 321.644531 275.773438 321.007812 Z M 88.101562 135.1875 C 88.140625 105.464844 100.375 77.355469 122.410156 57.726562 C 124.332031 56.007812 124.117188 55.671875 121.761719 56.710938 C 95.820312 68.144531 78.074219 89.125 71.691406 116.570312 C 70.453125 121.878906 69.828125 127.070312 69.820312 132.152344 C 69.78125 195.4375 69.78125 258.464844 69.820312 321.234375 C 69.820312 321.4375 69.890625 321.609375 70.035156 321.75 C 70.175781 321.894531 70.351562 321.964844 70.550781 321.964844 L 87.339844 321.964844 C 87.550781 321.964844 87.730469 321.890625 87.878906 321.742188 C 88.027344 321.59375 88.101562 321.414062 88.101562 321.207031 C 88.0625 258.660156 88.0625 196.65625 88.101562 135.1875 Z M 159.558594 56.640625 C 136.875 66.550781 121.285156 82.613281 112.792969 104.832031 C 109.265625 114.0625 107.496094 122.207031 107.476562 129.253906 C 107.363281 191.519531 107.351562 255.511719 107.4375 321.234375 C 107.4375 321.722656 107.679688 321.964844 108.167969 321.964844 L 124.957031 321.964844 C 125.417969 321.964844 125.644531 321.734375 125.644531 321.277344 C 125.75 262.546875 125.730469 203.351562 125.589844 143.695312 C 125.558594 131.949219 126.113281 122.886719 127.25 116.5 C 131.34375 93.367188 142.292969 73.691406 160.097656 57.472656 C 161.597656 56.113281 161.417969 55.835938 159.5625 56.640625 Z M 188.835938 60.550781 C 165.691406 73.976562 151.527344 93.320312 146.34375 118.582031 C 145.132812 124.496094 144.539062 132.953125 144.554688 143.949219 C 144.675781 205.445312 144.714844 264.53125 144.667969 321.207031 C 144.667969 321.710938 144.917969 321.964844 145.414062 321.964844 L 237.417969 321.964844 C 237.90625 321.964844 238.148438 321.726562 238.148438 321.246094 C 238.175781 261.523438 238.191406 201.796875 238.191406 142.066406 C 238.191406 130.992188 237.597656 122.773438 236.40625 117.402344 C 230.773438 92.070312 216.234375 72.851562 192.789062 59.734375 C 192.367188 59.492188 191.921875 59.425781 191.453125 59.539062 C 190.496094 59.753906 189.625 60.09375 188.835938 60.550781 Z M 188.835938 60.550781 "
     fill-opacity="1"
     fill-rule="nonzero"
     id="path5" />
  <path
     fill="#f2fd19"
     d="M 122.410156 57.726562 C 100.375 77.355469 88.128906 105.464844 88.101562 135.1875 C 88.050781 196.65625 88.050781 258.660156 88.101562 321.207031 C 88.101562 321.414062 88.027344 321.59375 87.878906 321.742188 C 87.730469 321.890625 87.550781 321.964844 87.339844 321.964844 L 70.550781 321.964844 C 70.351562 321.964844 70.175781 321.894531 70.035156 321.75 C 69.890625 321.609375 69.820312 321.4375 69.820312 321.234375 C 69.792969 258.464844 69.792969 195.4375 69.820312 132.152344 C 69.820312 127.070312 70.445312 121.878906 71.691406 116.570312 C 78.074219 89.125 95.820312 68.144531 121.761719 56.710938 C 124.117188 55.671875 124.332031 56.007812 122.410156 57.726562 Z M 122.410156 57.726562 "
     fill-opacity="1"
     fill-rule="nonzero"
     id="path6"
     style="fill:#faff69;fill-opacity:1" />
  <path
     fill="#f2fd19"
     d="M 159.558594 56.640625 C 161.414062 55.835938 161.59375 56.113281 160.09375 57.472656 C 142.292969 73.691406 131.34375 93.367188 127.246094 116.5 C 126.113281 122.886719 125.558594 131.949219 125.585938 143.695312 C 125.730469 203.351562 125.75 262.546875 125.644531 321.277344 C 125.644531 321.734375 125.414062 321.964844 124.953125 321.964844 L 108.164062 321.964844 C 107.679688 321.964844 107.433594 321.722656 107.433594 321.234375 C 107.351562 255.511719 107.363281 191.519531 107.476562 129.253906 C 107.5 122.207031 109.273438 114.0625 112.789062 104.832031 C 121.28125 82.613281 136.871094 66.550781 159.558594 56.640625 Z M 159.558594 56.640625 "
     fill-opacity="1"
     fill-rule="nonzero"
     id="path7"
     style="fill:#faff69;fill-opacity:1" />
  <path
     fill="#f2fd19"
     d="M 188.835938 60.550781 C 189.621094 60.09375 190.496094 59.753906 191.449219 59.539062 C 191.917969 59.425781 192.363281 59.492188 192.785156 59.734375 C 216.230469 72.851562 230.769531 92.070312 236.40625 117.402344 C 237.59375 122.773438 238.191406 130.992188 238.191406 142.066406 C 238.191406 201.796875 238.175781 261.523438 238.144531 321.246094 C 238.144531 321.726562 237.902344 321.964844 237.414062 321.964844 L 145.410156 321.964844 C 144.914062 321.964844 144.667969 321.710938 144.667969 321.207031 C 144.710938 264.527344 144.675781 205.445312 144.554688 143.949219 C 144.527344 132.953125 145.125 124.496094 146.339844 118.582031 C 151.523438 93.320312 165.6875 73.976562 188.832031 60.550781 Z M 188.835938 60.550781 "
     fill-opacity="1"
     fill-rule="nonzero"
     id="path8"
     style="fill:#faff69;fill-opacity:1" />
</svg>
