<?xml version="1.0" encoding="UTF-8" standalone="no"?>
<svg
   version="1.1"
   viewBox="0 0 579 730"
   width="144.75"
   height="182.5"
   id="svg15"
   xmlns="http://www.w3.org/2000/svg"
   xmlns:svg="http://www.w3.org/2000/svg">
  <defs
     id="defs15" />
  <path
     d="m 270,0 h 39 l 24,3 25,6 21,7 29,14 19,12 16,12 10,9 2,1 v 2 l 4,2 4,4 v 2 h 2 l 7,8 11,13 13,19 9,16 10,21 9,27 5,22 3,27 v 456 h 45 l 2,1 v 45 l -73,1 H 23 L 1,729 0,728 v -43 l 1,-1 35,-1 11,1 V 230 l 2,-23 5,-24 6,-20 8,-20 8,-16 9,-16 13,-18 13,-15 20,-20 17,-13 15,-10 14,-8 21,-10 27,-9 21,-5 z"
     fill="#151315"
     id="path2" />
  <path
     d="m 270,0 h 39 l 24,3 25,6 21,7 29,14 19,12 16,12 10,9 2,1 v 2 l 4,2 4,4 v 2 h 2 l 7,8 11,13 13,19 9,16 10,21 9,27 5,22 3,27 v 456 h 45 l 2,1 v 45 l -73,1 H 23 L 1,729 0,728 v -43 l 1,-1 35,-1 11,1 V 230 l 2,-23 5,-24 6,-20 8,-20 8,-16 9,-16 13,-18 13,-15 20,-20 17,-13 15,-10 14,-8 21,-10 27,-9 21,-5 z m 4,45 -27,4 -21,6 -20,8 -19,10 -12,8 -10,8 -10,9 -16,16 -13,17 -11,19 -10,21 -7,23 -4,22 -1,8 -1,170 V 683 H 487 V 237 l -2,-24 -5,-24 -7,-21 -12,-25 -12,-18 -8,-10 -12,-13 -14,-13 -15,-11 -15,-9 -16,-8 -18,-7 -19,-5 -19,-3 -10,-1 z"
     fill="#5A585A"
     id="path3"
     style="fill:#000000;fill-opacity:1" />
  <path
     d="m 138,590 h 299 l 2,1 1,44 -1,1 H 139 l -1,-1 z"
     fill="#5A585A"
     id="path4"
     style="fill:#ffffff;fill-opacity:1" />
  <path
     d="m 138,508 h 224 l 2,3 v 42 l -1,1 H 138 Z"
     fill="#5B595B"
     id="path5"
     style="fill:#fbfbfb;fill-opacity:1" />
  <path
     d="m 139,424 h 138 l 1,1 v 44 l -1,1 H 139 l -1,-1 v -44 z"
     fill="#5B595B"
     id="path6"
     style="fill:#ffffff;fill-opacity:1" />
  <path
     d="m 138,343 h 64 l 1,43 -2,3 h -62 l -1,-1 z"
     fill="#5B595B"
     id="path7"
     style="fill:#fefefe;fill-opacity:1" />
  <path
     d="m 371,276 4,1 5,12 5,8 10,6 11,4 1,4 -16,6 -7,6 -7,16 -2,4 -4,-1 -5,-14 -6,-8 -7,-4 -11,-4 -2,-4 5,-3 11,-4 5,-4 h 2 l 2,-5 z"
     fill="#5B595B"
     id="path8"
     style="fill:#af7ad5;fill-opacity:1" />
  <path
     d="m 287,116 4,1 3,12 h 2 l 3,3 10,5 3,1 v 3 l -12,5 h -2 l -2,4 -6,13 -4,-1 -4,-10 -4,-5 -13,-6 v -3 l 9,-4 6,-4 3,-5 z"
     fill="#5B595B"
     id="path9"
     style="fill:#af7ad5;fill-opacity:1" />
  <path
     d="m 384,178 h 7 l 4,4 1,8 -4,5 -7,1 -6,-4 -1,-1 v -9 z"
     fill="#5B595B"
     id="path10"
     style="fill:#faff69;fill-opacity:1" />
  <path
     d="m 207,246 h 4 l 2,4 v 3 l 8,2 v 4 l -7,2 -2,7 -4,1 -3,-7 -7,-3 1,-4 6,-3 z"
     fill="#5B595B"
     id="path11"
     style="fill:#af7ad5;fill-opacity:1" />
  <path
     d="m 173,178 h 6 l 3,4 -1,6 -7,1 -3,-3 v -6 h 2 z"
     fill="#5B595B"
     id="path12"
     style="fill:#faff69;fill-opacity:1" />
  <path
     d="m 296,228 5,2 2,5 -3,3 -5,1 -4,-4 2,-5 z"
     fill="#5B595B"
     id="path13"
     style="fill:#af7ad5;fill-opacity:1" />
  <path
     d="m 412,393 h 6 l 2,3 -1,5 h -6 l -3,-2 1,-5 z"
     fill="#5B595B"
     id="path14"
     style="fill:#faff69;fill-opacity:1" />
  <path
     d="m 275,322 4,2 1,1 v 5 l -5,1 -3,-2 1,-5 z"
     fill="#5B595B"
     id="path15"
     style="fill:#faff69;fill-opacity:1" />
</svg>
