<svg xmlns:xlink="http://www.w3.org/1999/xlink" version="1.1" class="highcharts-root" style="font-family: ui-sans-serif, -apple-system, BlinkMacSystemFont, &quot;Segoe UI Variable Display&quot;, &quot;Segoe UI&quot;, Helvetica, &quot;Apple Color Emoji&quot;, Arial, sans-serif, &quot;Segoe UI Emoji&quot;, &quot;Segoe UI Symbol&quot;; font-size: 12px; cursor: default;" xmlns="http://www.w3.org/2000/svg" width="800" height="500" viewBox="0 0 800 500" aria-label="Interactive chart" aria-hidden="false"><desc aria-hidden="true">Created with Highcharts 11.4.1</desc><defs aria-hidden="true"><filter id="highcharts-drop-shadow-455"><feDropShadow dx="1" dy="1" flood-color="#000000" flood-opacity="0.75" stdDeviation="2.5"></feDropShadow></filter><clipPath id="highcharts-h8s5y4q-2978-"><rect x="0" y="0" width="442" height="647" fill="none"></rect></clipPath><filter id="highcharts-drop-shadow-455-offsetx--1-offsety--1"><feDropShadow dx="-1" dy="-1" flood-color="#000000" flood-opacity="0.75" stdDeviation="2.5"></feDropShadow></filter></defs><rect fill="transparent" class="highcharts-background" filter="none" x="0" y="0" width="800" height="500" rx="0" ry="0" aria-hidden="true"></rect><rect fill="none" class="highcharts-plot-background" x="143" y="20" width="647" height="442" filter="none" aria-hidden="true"></rect><g class="highcharts-grid highcharts-yaxis-grid" data-z-index="1" aria-hidden="true"><path fill="none" stroke="rgb(55, 55, 55)" stroke-opacity=" 1" stroke-width="1" stroke-dasharray="1,3" data-z-index="1" class="highcharts-grid-line" d="M 142.5 20 L 142.5 462" opacity="1"></path><path fill="none" stroke="rgb(55, 55, 55)" stroke-opacity=" 1" stroke-width="1" stroke-dasharray="1,3" data-z-index="1" class="highcharts-grid-line" d="M 304.5 20 L 304.5 462" opacity="1"></path><path fill="none" stroke="rgb(55, 55, 55)" stroke-opacity=" 1" stroke-width="1" stroke-dasharray="1,3" data-z-index="1" class="highcharts-grid-line" d="M 466.5 20 L 466.5 462" opacity="1"></path><path fill="none" stroke="rgb(55, 55, 55)" stroke-opacity=" 1" stroke-width="1" stroke-dasharray="1,3" data-z-index="1" class="highcharts-grid-line" d="M 627.5 20 L 627.5 462" opacity="1"></path><path fill="none" stroke="rgb(55, 55, 55)" stroke-opacity=" 1" stroke-width="1" stroke-dasharray="1,3" data-z-index="1" class="highcharts-grid-line" d="M 790.5 20 L 790.5 462" opacity="1"></path></g><g class="highcharts-grid highcharts-xaxis-grid" data-z-index="1" aria-hidden="true"><path fill="none" stroke="rgb(55, 55, 55)" stroke-opacity=" 1" stroke-width="0" stroke-dasharray="0,0" data-z-index="1" class="highcharts-grid-line" d="M 143 167.5 L 790 167.5" opacity="1"></path><path fill="none" stroke="rgb(55, 55, 55)" stroke-opacity=" 1" stroke-width="0" stroke-dasharray="0,0" data-z-index="1" class="highcharts-grid-line" d="M 143 315.5 L 790 315.5" opacity="1"></path><path fill="none" stroke="rgb(55, 55, 55)" stroke-opacity=" 1" stroke-width="0" stroke-dasharray="0,0" data-z-index="1" class="highcharts-grid-line" d="M 143 462.5 L 790 462.5" opacity="1"></path><path fill="none" stroke="rgb(55, 55, 55)" stroke-opacity=" 1" stroke-width="0" stroke-dasharray="0,0" data-z-index="1" class="highcharts-grid-line" d="M 143 20.5 L 790 20.5" opacity="1"></path></g><rect fill="none" class="highcharts-plot-border" data-z-index="1" stroke="#cccccc" stroke-width="0" x="143" y="20" width="647" height="442" aria-hidden="true"></rect><g class="highcharts-axis highcharts-yaxis" data-z-index="2" aria-hidden="true"><path fill="none" class="highcharts-axis-line" stroke="rgb(55, 55, 55)" stroke-opacity=" 1" stroke-width="0" data-z-index="7" d="M 143 462 L 790 462"></path></g><g class="highcharts-axis highcharts-xaxis" data-z-index="2" aria-hidden="true"><path fill="none" class="highcharts-axis-line" stroke="rgb(55, 55, 55)" stroke-opacity=" 1" stroke-width="1" data-z-index="7" d="M 142.5 20 L 142.5 462"></path></g><g class="highcharts-series-group" data-z-index="3" filter="none" aria-hidden="false"><g class="highcharts-series highcharts-series-0 highcharts-bar-series highcharts-color-0" data-z-index="0.1" opacity="1" transform="translate(143,20) rotate(90 102.5 544.5) scale(-1 1)" clip-path="url(#highcharts-h8s5y4q-2978-)" aria-hidden="false"><path fill="rgb(97, 189, 142)" fill-opacity=" 1" d="M 361.5 97.5 L 373.5 97.5 A 2 2 0 0 1 375.5 99.5 L 375.5 647.5 A 0 0 0 0 1 375.5 647.5 L 359.5 647.5 A 0 0 0 0 1 359.5 647.5 L 359.5 99.5 A 2 2 0 0 1 361.5 97.5 Z" stroke="rgb(25, 25, 25)" stroke-opacity=" 1" stroke-width="0.5" opacity="1" filter="none" class="highcharts-point highcharts-color-0" tabindex="-1" style="outline: none;" role="img" aria-label="Community Response, 34. Company Response (Within 12 hours)."></path><path fill="rgb(231, 181, 51)" fill-opacity=" 1" d="M 214.5 129.5 L 226.5 129.5 A 2 2 0 0 1 228.5 131.5 L 228.5 647.5 A 0 0 0 0 1 228.5 647.5 L 212.5 647.5 A 0 0 0 0 1 212.5 647.5 L 212.5 131.5 A 2 2 0 0 1 214.5 129.5 Z" stroke="rgb(25, 25, 25)" stroke-opacity=" 1" stroke-width="0.5" opacity="1" filter="none" class="highcharts-point highcharts-color-0" tabindex="-1" style="outline: none;" role="img" aria-label="Company Response, 32. Company Response (Within 12 hours)."></path><path fill="rgb(224, 94, 88)" fill-opacity=" 1" d="M 67.5 97.5 L 79.5 97.5 A 2 2 0 0 1 81.5 99.5 L 81.5 647.5 A 0 0 0 0 1 81.5 647.5 L 65.5 647.5 A 0 0 0 0 1 65.5 647.5 L 65.5 99.5 A 2 2 0 0 1 67.5 97.5 Z" stroke="rgb(25, 25, 25)" stroke-opacity=" 1" stroke-width="0.5" opacity="1" filter="none" class="highcharts-point highcharts-color-0" tabindex="-1" style="outline: none;" role="img" aria-label="No Response, 34. Company Response (Within 12 hours)."></path></g><g class="highcharts-markers highcharts-series-0 highcharts-bar-series highcharts-color-0" data-z-index="0.1" opacity="1" transform="translate(143,20) scale(1 1)" clip-path="none" aria-hidden="true"></g></g><text x="400" text-anchor="middle" class="highcharts-title" data-z-index="4" style="font-size: 1.2em; color: rgb(51, 51, 51); font-weight: bold; fill: rgb(51, 51, 51);" y="21" aria-hidden="true"></text><text x="400" text-anchor="middle" class="highcharts-subtitle" data-z-index="4" style="color: rgb(102, 102, 102); font-size: 0.8em; fill: rgb(102, 102, 102);" y="22" aria-hidden="true"></text><text x="400" text-anchor="middle" class="highcharts-caption" 
      style="color: rgba(0, 0, 0, 0.6); font-size: 12px; font-weight: normal; fill: rgba(0, 0, 0, 0.6);" 
      y="497" aria-hidden="true"></text><g class="highcharts-data-labels highcharts-series-0 highcharts-bar-series highcharts-color-0" data-z-index="6" opacity="1" transform="translate(143,20) scale(1 1)" aria-hidden="true"><g class="highcharts-label highcharts-data-label highcharts-data-label-color-0" data-z-index="1" filter="none" transform="translate(549,62)"><text x="5" data-z-index="1" y="17" style="color: rgba(255, 255, 255, 0.445); font-size: 12px; font-weight: normal; fill: rgba(255, 255, 255, 0.445);">34</text></g><g class="highcharts-label highcharts-data-label highcharts-data-label-color-0" data-z-index="1" filter="none" transform="translate(517,209)"><text x="5" data-z-index="1" y="17" style="color: rgba(255, 255, 255, 0.445); font-size: 12px; font-weight: normal; fill: rgba(255, 255, 255, 0.445);">32</text></g><g class="highcharts-label highcharts-data-label highcharts-data-label-color-0" data-z-index="1" filter="none" transform="translate(549,356)"><text x="5" data-z-index="1" y="17" style="color: rgba(255, 255, 255, 0.445); font-size: 12px; font-weight: normal; fill: rgba(255, 255, 255, 0.445);">34</text></g></g><g class="highcharts-axis-labels highcharts-yaxis-labels" data-z-index="7" aria-hidden="true"><text style="color: rgba(0, 0, 0, 0.6); cursor: default; font-size: 12px; fill: rgba(0, 0, 0, 0.6);" text-anchor="middle" transform="translate(0,0)" y="482" opacity="1">0</text><text x="304.75" style="color: rgba(0, 0, 0, 0.6); cursor: default; font-size: 12px; fill: rgba(0, 0, 0, 0.6);" text-anchor="middle" transform="translate(0,0)" y="482" opacity="1">10</text><text x="466.5" style="color: rgba(0, 0, 0, 0.6); cursor: default; font-size: 12px; fill: rgba(0, 0, 0, 0.6);" text-anchor="middle" transform="translate(0,0)" y="482" opacity="1">20</text><text x="628.25" style="color: rgba(0, 0, 0, 0.6); cursor: default; font-size: 12px; fill: rgba(0, 0, 0, 0.6);" text-anchor="middle" transform="translate(0,0)" y="482" opacity="1">30</text><text x="782.4333333969116" style="color: rgba(0, 0, 0, 0.6); cursor: default; font-size: 12px; fill: rgba(0, 0, 0, 0.6);" text-anchor="middle" transform="translate(0,0)" y="482" opacity="1">40</text></g><g class="highcharts-axis-labels highcharts-xaxis-labels" data-z-index="7" aria-hidden="true"><text style="color: rgba(0, 0, 0, 0.6); cursor: default; font-size: 12px; fill: rgba(0, 0, 0, 0.6);" text-anchor="end" transform="translate(0,0)" y="98" opacity="1">Community Response</text><text x="135" style="color: rgba(0, 0, 0, 0.6); cursor: default; font-size: 12px; overflow: hidden; fill: rgba(0, 0, 0, 0.6);" text-anchor="end" transform="translate(0,0)" y="246" opacity="1">Company Response</text><text x="135" style="color: rgba(0, 0, 0, 0.6); cursor: default; font-size: 12px; overflow: hidden; fill: rgba(0, 0, 0, 0.6);" text-anchor="end" transform="translate(0,0)" y="393" opacity="1">No Response</text></g></svg>